<?xml version="1.0" standalone="no"?><!DOCTYPE svg PUBLIC "-//W3C//DTD SVG 1.1//EN" "http://www.w3.org/Graphics/SVG/1.1/DTD/svg11.dtd"><svg t="1575364894190" class="icon" viewBox="0 0 1024 1024" version="1.1" xmlns="http://www.w3.org/2000/svg" p-id="13891" xmlns:xlink="http://www.w3.org/1999/xlink" width="32" height="32"><defs><style type="text/css"></style></defs><path d="M922.848 0q40 0 70.016 26.56t30.016 66.56q0 36-25.728 86.272-189.728 359.424-265.728 429.728-55.424 52-124.576 52-72 0-123.712-52.864t-51.712-125.44q0-73.152 52.576-121.152l364.576-330.848q33.728-30.848 74.272-30.848zM403.424 590.848q22.272 43.424 60.864 74.272t86.016 43.424l0.576 40.576q2.272 121.728-74.016 198.272t-199.136 76.576q-70.272 0-124.576-26.56t-87.136-72.864-49.44-104.576-16.576-125.728q4 2.848 23.424 17.152t35.424 25.44 33.728 20.864 26.272 9.728q23.424 0 31.424-21.152 14.272-37.728 32.864-64.288t39.712-43.424 50.272-27.136 58.848-14.56 71.424-6.016z" p-id="13892" fill="#ffffff"></path></svg>