<?xml version="1.0" standalone="no"?><!DOCTYPE svg PUBLIC "-//W3C//DTD SVG 1.1//EN" "http://www.w3.org/Graphics/SVG/1.1/DTD/svg11.dtd"><svg t="1575518933845" class="icon" viewBox="0 0 1024 1024" version="1.1" xmlns="http://www.w3.org/2000/svg" p-id="3424" xmlns:xlink="http://www.w3.org/1999/xlink" width="32" height="32"><defs><style type="text/css"></style></defs><path d="M864.05 128.46H129.97c-17.68 0-32 14.33-32 32v639.61c0 17.67 14.32 32 32 32h734.08c17.68 0 32-14.33 32-32V160.46c0-17.67-14.32-32-32-32z m-32 639.61H161.97V192.46h670.08v575.61z" p-id="3425" fill="#ffffff"></path><path d="M795.58 691.57a32.007 32.007 0 0 1-27.33 15.34H225.77c-12.01 0-23-6.72-28.48-17.4a31.988 31.988 0 0 1 2.5-33.28l125.3-174.17c10.17-14.13 29.78-17.54 44.12-7.67l101.77 70.03 129.73-165.51a31.995 31.995 0 0 1 28.21-12.11 31.99 31.99 0 0 1 25.42 17.2L796.7 660.26a32.018 32.018 0 0 1-1.12 31.31z" p-id="3426" fill="#ffffff"></path><path d="M320.03 321.34a64.03 64.83 0 1 0 128.06 0 64.03 64.83 0 1 0-128.06 0Z" p-id="3427" fill="#ffffff"></path></svg>