<?xml version="1.0" standalone="no"?><!DOCTYPE svg PUBLIC "-//W3C//DTD SVG 1.1//EN" "http://www.w3.org/Graphics/SVG/1.1/DTD/svg11.dtd"><svg t="1575364646180" class="icon" viewBox="0 0 1154 1024" version="1.1" xmlns="http://www.w3.org/2000/svg" p-id="6663" xmlns:xlink="http://www.w3.org/1999/xlink" width="36.0625" height="32"><defs><style type="text/css"></style></defs><path d="M392.293888 862.27968" p-id="6664" fill="#ffffff"></path><path d="M948.895232 862.27968" p-id="6665" fill="#ffffff"></path><path d="M302.864896 877.161472" p-id="6666" fill="#ffffff"></path><path d="M1026.969088 877.161472" p-id="6667" fill="#ffffff"></path><path d="M130.520576 788.737024" p-id="6668" fill="#ffffff"></path><path d="M1025.306112 788.737024" p-id="6669" fill="#ffffff"></path><path d="M148.104704 878.01344" p-id="6670" fill="#ffffff"></path><path d="M1090.313728 878.01344" p-id="6671" fill="#ffffff"></path><path d="M-10.9184 850.746368" p-id="6672" fill="#ffffff"></path><path d="M308.576768 389.562368c0 56.772608 45.507584 102.280192 103.21408 102.280192 57.695232 0 102.734848-45.507584 102.734848-102.280192 0-57.695232-45.039616-102.734848-102.734848-102.734848C354.084352 286.82752 308.576768 331.867136 308.576768 389.562368z" p-id="6673" fill="#ffffff"></path><path d="M170.644992 240.375808c0-21.106688 18.296832-38.934528 39.40864-38.934528l747.83232 0c22.519808 0 39.400448 17.82784 39.400448 38.934528l0 486.51264c-30.025728-95.70816-120.103936-244.893696-229.875712-244.893696-101.338112 0-195.16928 134.172672-236.923904 230.818816-23.936-53.952512-93.831168-93.361152-174.056448-93.361152-102.744064 0-185.785344 61.458432-185.785344 137.930752L170.644992 240.375808z" p-id="6674" fill="#ffffff"></path><path d="M28.960256 921.119744c0 21.111808 17.828864 38.938624 38.940672 38.938624l1025.081344 0c21.123072 0 39.419904-17.826816 39.419904-38.938624L1132.402176 102.919168c0-22.050816-18.766848-39.404544-39.419904-39.404544L67.900928 63.514624c-21.111808 0-38.940672 18.292736-38.940672 39.404544L28.960256 921.119744z" p-id="6675" fill="#ffffff"></path><path d="M1171.331584 850.746368" p-id="6676" fill="#ffffff"></path></svg>