<?xml version="1.0" standalone="no"?><!DOCTYPE svg PUBLIC "-//W3C//DTD SVG 1.1//EN" "http://www.w3.org/Graphics/SVG/1.1/DTD/svg11.dtd"><svg t="1575427113164" class="icon" viewBox="0 0 1024 1024" version="1.1" xmlns="http://www.w3.org/2000/svg" p-id="5450" xmlns:xlink="http://www.w3.org/1999/xlink" width="32" height="32"><defs><style type="text/css"></style></defs><path d="M750.2 570.4c0 14.9-5.2 27.5-15.6 37.9L527.7 815.5c-11 10.4-23.8 15.6-38.4 15.6-14.9 0-27.5-5.2-37.9-15.6L150.3 514c-10.7-10.4-19.8-24.6-27.2-42.5S112 437.1 112 422.2V246.9c0-14.6 5.3-27.2 16-37.9s23.3-16 37.9-16h175.3c14.9 0 31.3 3.8 49.2 11.2 18 7.4 32.3 16.4 42.9 27.2l301.2 300.7c10.4 11 15.7 23.7 15.7 38.3zM285 366c10.6-10.6 15.7-23.3 15.7-38.1 0-14.9-5.2-27.5-15.7-38.1-10.6-10.6-23.3-15.7-38.1-15.7s-27.5 5.2-38.1 15.7c-10.6 10.6-15.7 23.3-15.7 38.1 0 14.9 5.2 27.5 15.7 38.1 10.6 10.6 23.3 15.7 38.1 15.7s27.5-5.3 38.1-15.7z m627 204.4c0 14.9-5.2 27.5-15.6 37.9L689.5 815.5c-11 10.4-23.8 15.6-38.4 15.6-10.1 0-18.4-1.9-24.9-5.9-6.5-3.9-13.9-10.3-22.3-19l198-198c10.4-10.4 15.6-23 15.6-37.9 0-14.6-5.2-27.4-15.6-38.4L500.7 231.3c-10.7-10.7-25-19.8-42.9-27.2-18-7.4-34.4-11.2-49.2-11.2h94.3c14.9 0 31.3 3.8 49.2 11.2 18 7.4 32.3 16.4 42.9 27.2L896.2 532c10.6 11.1 15.8 23.8 15.8 38.4z" p-id="5451" fill="#ffffff"></path></svg>